<?xml version="1.0" encoding="UTF-8" standalone="no"?>
<!-- Created with Inkscape (http://www.inkscape.org/) -->

<svg
   width="4.2333331mm"
   height="4.2333336mm"
   viewBox="0 0 4.2333331 4.2333336"
   version="1.1"
   id="svg1"
   xml:space="preserve"
   xmlns="http://www.w3.org/2000/svg"
   xmlns:svg="http://www.w3.org/2000/svg"><defs
     id="defs1" /><g
     id="layer9"
     transform="translate(183.35249)"><circle
       style="fill:#ffffff;stroke:#ff8080;stroke-width:0.064312;stroke-dasharray:none"
       id="path6"
       cx="-181.23584"
       cy="2.1166692"
       r="2.0845106" /><path
       style="fill:#241f1c;stroke:#241f1c;stroke-width:0.0132822"
       d="m -181.29714,3.3702294 c -0.11117,-0.012673 -0.18959,-0.035038 -0.28124,-0.080215 -0.17083,-0.084199 -0.3003,-0.2199449 -0.40038,-0.4197803 -0.0486,-0.09708 -0.0809,-0.1789342 -0.10948,-0.2777536 -0.0136,-0.047063 -0.0179,-0.05731 -0.0309,-0.07396 -0.0564,-0.072055 -0.0814,-0.1803329 -0.0691,-0.2994536 l 0.004,-0.041154 -0.0318,-0.040684 c -0.11162,-0.1427918 -0.1877,-0.2783256 -0.23683,-0.4218853 -0.0296,-0.086576 -0.0479,-0.1691082 -0.061,-0.2757343 -0.01,-0.077762 -0.009,-0.2317843 0.002,-0.309112 0.009,-0.070588 0.0217,-0.1265326 0.0381,-0.17365279 0.0326,-0.0940165 0.0696,-0.12868365 0.13252,-0.12428434 0.0538,0.003762 0.097,0.0301352 0.17103,0.10427919 0.0559,0.0560185 0.11283,0.12550464 0.20896,0.25505004 0.10673,0.1438213 0.16345,0.2079985 0.22328,0.2526183 0.0473,0.035263 0.0637,0.043553 0.0762,0.038429 0.005,-0.00221 0.0272,-0.01115 0.0484,-0.019868 0.2077,-0.08516 0.48759,-0.09516 0.73508,-0.026263 l 0.0393,0.010927 0.0346,-0.019585 c 0.0902,-0.051084 0.16316,-0.1171048 0.24122,-0.2183532 0.0939,-0.121832 0.14329,-0.1787284 0.19918,-0.22956284 0.1307,-0.11888391 0.24475,-0.16977074 0.30764,-0.13725633 0.0424,0.0219152 0.0694,0.0701542 0.089,0.15917927 0.0133,0.060092 0.0163,0.1007294 0.016,0.2178481 -6.8e-4,0.356525 -0.0809,0.6414029 -0.25078,0.8904211 l -0.0249,0.036458 v 0.065561 c 0,0.1363071 -0.0237,0.2438483 -0.0756,0.3438686 -0.0139,0.026773 -0.0273,0.059343 -0.0355,0.086099 -0.0588,0.193719 -0.13509,0.3319534 -0.24923,0.451879 -0.16643,0.1748698 -0.41124,0.2800164 -0.64649,0.2776676 -0.029,-2.582e-4 -0.0575,-0.00107 -0.0633,-0.00173 z m 0.11985,-0.047022 c 0.17506,-0.013873 0.33509,-0.076513 0.47406,-0.1855543 0.0401,-0.031489 0.11402,-0.1082377 0.14836,-0.1540908 0.0772,-0.103074 0.12952,-0.2122798 0.17315,-0.3613725 0.006,-0.020753 0.0209,-0.056007 0.0362,-0.086099 0.0388,-0.076341 0.0595,-0.1513002 0.0696,-0.2512696 0.009,-0.090321 -0.006,-0.2236604 -0.0356,-0.3194033 -0.004,-0.011381 -0.005,-0.019287 -0.004,-0.017571 0.008,0.00832 0.0424,0.070179 0.0564,0.100585 0.009,0.018814 0.0166,0.034232 0.0177,0.034263 0.004,7.74e-5 0.0576,-0.089501 0.0839,-0.140513 0.0638,-0.1238583 0.10888,-0.2628321 0.13347,-0.4111679 0.0176,-0.1060513 0.023,-0.1803054 0.0231,-0.3180404 3.4e-4,-0.1408802 -0.002,-0.1644238 -0.0212,-0.23194082 -0.0302,-0.10639841 -0.0634,-0.12124172 -0.1613,-0.0722332 -0.0575,0.0287754 -0.10858,0.0679545 -0.17413,0.13353302 -0.0564,0.056418 -0.0857,0.090651 -0.15519,0.1811841 -0.0726,0.094619 -0.1185,0.1415973 -0.19062,0.1950904 -0.0357,0.026486 -0.0855,0.057711 -0.11517,0.072285 l -0.0188,0.00922 -0.0399,-0.012637 c -0.0887,-0.028084 -0.1958,-0.044291 -0.30989,-0.046895 -0.16945,-0.00386 -0.30183,0.020266 -0.44213,0.080595 -0.0381,0.01637 -0.0415,0.017225 -0.053,0.013217 -0.0346,-0.012047 -0.0912,-0.052606 -0.14187,-0.1016084 -0.0461,-0.044529 -0.0896,-0.096959 -0.17316,-0.2083299 -0.19387,-0.25846472 -0.27262,-0.33698455 -0.34371,-0.34269124 -0.0343,-0.002754 -0.05,0.008065 -0.0703,0.0483149 -0.0373,0.0742109 -0.0616,0.21652674 -0.0617,0.36089814 0,0.2058132 0.0426,0.3887845 0.13173,0.5651081 0.0428,0.08467 0.0891,0.1573833 0.14748,0.2316753 l 0.0209,0.026615 0.008,-0.037774 c 0.0192,-0.086644 0.0611,-0.1916581 0.10621,-0.2662994 0.01,-0.016488 0.0313,-0.047993 0.0473,-0.07001 l 0.0292,-0.040031 -0.004,-0.025758 c -0.0221,-0.1272005 -0.10099,-0.3250958 -0.21962,-0.5511391 -0.0241,-0.04585 -0.0264,-0.04765 0.0392,0.029708 0.10828,0.127674 0.20775,0.2884336 0.28214,0.4559581 l 0.0167,0.037598 -0.0331,0.0362 c -0.11515,0.1261435 -0.1767,0.2397445 -0.21572,0.3981687 -0.0467,0.1894952 -0.0329,0.3291886 0.0411,0.4172194 0.0116,0.013779 0.0163,0.024512 0.0276,0.063256 0.0757,0.2576623 0.18478,0.4519694 0.32177,0.5729958 0.0371,0.032768 0.10538,0.080239 0.14924,0.1037428 0.0734,0.039324 0.17343,0.07149 0.25303,0.081354 0.0593,0.00735 0.0898,0.00811 0.14621,0.00364 z m -0.0988,-0.1546987 c -0.26065,-0.013667 -0.46059,-0.1206346 -0.54903,-0.2937305 -0.0321,-0.062798 -0.0495,-0.1170162 -0.0745,-0.2318481 -0.008,-0.034601 -0.017,-0.07185 -0.0211,-0.082775 -0.008,-0.02124 -0.0279,-0.049909 -0.0371,-0.053431 -0.008,-0.00312 -0.01,0.00424 -0.008,0.039553 9.5e-4,0.024981 3.4e-4,0.030642 -0.003,0.02771 -0.008,-0.0068 -0.0249,-0.046474 -0.0288,-0.068709 -0.009,-0.051236 0.0166,-0.1057965 0.059,-0.1246459 0.0151,-0.00673 0.0584,-0.012912 0.0514,-0.00736 -0.013,0.010432 -0.0192,0.024061 -0.0192,0.042161 0,0.1138901 0.23651,0.2122277 0.49024,0.2038345 0.074,-0.00245 0.12832,-0.00954 0.18187,-0.023729 l 0.0132,-0.00349 v -0.07367 -0.073665 l -0.0272,-7.75e-5 c -0.0359,-7.74e-5 -0.0956,-0.00829 -0.12299,-0.016897 -0.0407,-0.012784 -0.0763,-0.042073 -0.0947,-0.077919 -0.009,-0.017225 -0.01,-0.022963 -0.01,-0.052714 0,-0.040943 0.008,-0.058884 0.0367,-0.087984 0.0536,-0.053501 0.16482,-0.081074 0.2838,-0.070345 0.0936,0.00844 0.15561,0.031553 0.19776,0.073699 0.0284,0.028404 0.0387,0.051392 0.0387,0.086388 0,0.042789 -0.0245,0.083547 -0.0662,0.1103447 -0.0341,0.021895 -0.0944,0.035436 -0.15782,0.035476 l -0.0325,2.59e-5 v 0.075264 0.075264 l 0.031,0.00728 c 0.1739,0.040827 0.43429,0.00746 0.56174,-0.071979 0.0355,-0.022109 0.069,-0.055202 0.0801,-0.079209 0.0112,-0.024074 0.012,-0.052467 0.002,-0.069063 l -0.007,-0.011486 0.01,0.00239 c 0.0446,0.011076 0.0763,0.045531 0.0852,0.092734 0.004,0.022336 -5.2e-4,0.056619 -0.0114,0.081861 l -0.008,0.017502 -0.006,-0.024222 c -0.007,-0.031697 -0.0124,-0.032636 -0.0335,-0.00607 -0.0288,0.036174 -0.0334,0.047055 -0.0494,0.1146037 -0.018,0.076329 -0.0316,0.1197559 -0.0549,0.1748791 -0.0542,0.1282893 -0.13102,0.2084499 -0.25766,0.268815 -0.0946,0.0451 -0.19112,0.067988 -0.31815,0.075455 -0.03,0.00176 -0.0592,0.00301 -0.065,0.00277 -0.006,-2.582e-4 -0.0327,-0.00159 -0.0597,-0.00301 z m 0.21789,-0.048537 c 0.15736,-0.024239 0.27043,-0.075211 0.35517,-0.1601151 0.0442,-0.044296 0.0613,-0.074725 0.0612,-0.1088342 -3.4e-4,-0.037292 -0.0192,-0.065755 -0.0406,-0.060406 -0.0132,0.00332 -0.0249,0.03138 -0.03,0.072299 -0.003,0.026117 -0.007,0.037395 -0.0149,0.051802 l -0.0108,0.018416 -0.009,-0.00853 c -0.0336,-0.032084 -0.063,-0.011605 -0.074,0.051573 l -0.004,0.023123 -0.024,0.010743 c -0.037,0.016547 -0.0395,0.016744 -0.0453,0.00355 -0.003,-0.0062 -0.0123,-0.018917 -0.0213,-0.028257 -0.0143,-0.014812 -0.0182,-0.016985 -0.0306,-0.016985 -0.009,0 -0.0176,0.00265 -0.0239,0.00762 -0.0121,0.00955 -0.0292,0.045096 -0.0321,0.066857 -0.002,0.016305 -0.002,0.016531 -0.0185,0.01992 -0.0459,0.00966 -0.0491,0.00946 -0.0631,-0.00393 -0.0172,-0.016453 -0.0253,-0.020185 -0.0438,-0.020185 -0.0177,0 -0.0366,0.010846 -0.0528,0.030278 l -0.01,0.011894 h -0.0364 -0.0364 l -0.008,-0.010856 c -0.0134,-0.018775 -0.034,-0.031316 -0.0515,-0.031316 -0.018,0 -0.0265,0.00375 -0.0423,0.018735 l -0.0115,0.010863 -0.0325,-0.00646 c -0.0179,-0.00355 -0.0342,-0.00788 -0.0364,-0.00959 -0.002,-0.00172 -0.005,-0.011335 -0.006,-0.021369 -0.003,-0.023805 -0.0148,-0.050409 -0.0258,-0.059075 -0.0191,-0.01506 -0.0405,-0.0045 -0.0613,0.030295 -0.006,0.010468 -0.0128,0.019033 -0.0144,0.019033 -0.002,0 -0.0163,-0.00649 -0.0326,-0.014425 -0.0267,-0.01306 -0.0295,-0.015375 -0.0295,-0.024428 0,-0.019348 -0.008,-0.045805 -0.0164,-0.056135 -0.0113,-0.013471 -0.0297,-0.014283 -0.045,-0.002 l -0.0105,0.00841 -0.0129,-0.019445 c -0.0106,-0.016028 -0.0137,-0.024766 -0.0172,-0.049721 -0.008,-0.055032 -0.0168,-0.074203 -0.0349,-0.074203 -0.0124,0 -0.0239,0.012743 -0.0301,0.033524 -0.006,0.02142 -0.006,0.029138 6e-4,0.049817 0.0118,0.035124 0.0602,0.09335 0.10687,0.1286467 0.0647,0.048897 0.16182,0.090209 0.25704,0.1093142 0.0378,0.00759 0.0565,0.010419 0.1154,0.01746 0.007,7.747e-4 0.0542,9.477e-4 0.10543,2.583e-4 0.0709,-8.857e-4 0.10405,-0.00285 0.13881,-0.00821 z m -0.45189,-0.2677349 c 0.0134,-0.018541 0.0293,-0.062808 0.0459,-0.1281334 l 0.0134,-0.052714 -0.0128,-0.00244 c -0.007,-0.00134 -0.0215,-0.00252 -0.0323,-0.00263 -0.0194,-2.582e-4 -0.0877,-0.00833 -0.1188,-0.014138 -0.009,-0.00168 -0.017,-0.00243 -0.0177,-0.00166 -0.002,0.00245 0.0177,0.0831 0.0285,0.1139968 0.014,0.040066 0.0363,0.082429 0.0491,0.093158 0.007,0.00559 0.0147,0.00876 0.0224,0.00876 0.01,0 0.0137,-0.00238 0.0223,-0.014193 z m 0.65163,0.00757 c 0.0113,-0.00745 0.0306,-0.03306 0.0427,-0.056817 0.0119,-0.023263 0.0326,-0.084186 0.042,-0.123655 l 0.008,-0.034226 -0.007,0.00173 c -0.0275,0.00635 -0.10197,0.016208 -0.13677,0.018112 -0.0228,0.00125 -0.042,0.00321 -0.0426,0.00436 -0.002,0.00358 0.0218,0.1057947 0.0331,0.1415903 0.0127,0.040196 0.0237,0.05555 0.0399,0.055516 0.006,-1.55e-5 0.0156,-0.00299 0.0211,-0.0066 z m -0.30806,-0.1307337 c 0.0367,-0.0051 0.0868,-0.021327 0.12764,-0.041325 0.0321,-0.015732 0.0329,-0.016407 0.0211,-0.017647 -0.007,-6.895e-4 -0.051,6.894e-4 -0.0984,0.00312 -0.0671,0.00344 -0.10496,0.00351 -0.17176,3.434e-4 -0.0471,-0.00224 -0.0874,-0.00495 -0.0896,-0.00602 -0.002,-0.00107 7.7e-4,0.00212 0.007,0.00709 0.0245,0.020985 0.0813,0.04557 0.12252,0.053059 0.0321,0.00582 0.048,0.00609 0.0819,0.00137 z m 0.51236,-0.064369 c 0.0109,-0.011508 0.0229,-0.043628 0.0229,-0.060966 0,-0.00719 -8.8e-4,-0.00704 -0.0255,0.00435 -0.014,0.00649 -0.0298,0.012883 -0.0351,0.014209 -0.0112,0.0028 -0.0114,0.00476 -0.004,0.029008 0.008,0.028186 0.0235,0.033008 0.042,0.013399 z m -1.08149,5.164e-4 c 0.0114,-0.012303 0.0197,-0.048321 0.0111,-0.048321 -0.002,0 -0.0174,-0.00633 -0.0339,-0.014057 -0.0165,-0.00773 -0.0308,-0.014058 -0.0317,-0.014058 -9.2e-4,0 -6e-4,0.00824 7.8e-4,0.018307 0.005,0.035071 0.0237,0.066036 0.0405,0.066036 0.003,0 0.009,-0.00356 0.0132,-0.00791 z m 0.693,-0.3104366 c 0.0205,-0.0082 0.0319,-0.023029 0.0319,-0.041524 0,-0.010947 -0.002,-0.016908 -0.008,-0.022339 -0.009,-0.00887 -0.0243,-0.014904 -0.0367,-0.014904 -0.0131,0 -0.0387,0.013791 -0.0504,0.027096 -0.0111,0.012598 -0.0188,0.0355 -0.0151,0.04496 0.006,0.015936 0.0466,0.019404 0.0783,0.00671 z m -0.23871,-0.00145 c 0.013,-0.012976 0.006,-0.03903 -0.0145,-0.058311 -0.0161,-0.014807 -0.0315,-0.020272 -0.051,-0.018083 -0.0293,0.00331 -0.0423,0.020271 -0.0363,0.047266 0.005,0.024016 0.027,0.035203 0.0692,0.035797 0.0211,2.582e-4 0.0267,-8.599e-4 0.0325,-0.00667 z m 0.57056,-0.2741205 c -0.0259,-0.0038 -0.0545,-0.018003 -0.0752,-0.037402 -0.0795,-0.074369 -0.0589,-0.2039158 0.0397,-0.2490296 0.0571,-0.026148 0.11892,-0.016114 0.16606,0.026961 0.0754,0.06895 0.0586,0.19512 -0.0325,0.2429691 -0.0141,0.0074 -0.0333,0.014125 -0.0467,0.016289 -0.0249,0.00404 -0.0252,0.00404 -0.0513,2.582e-4 z m -1.06431,-0.00491 c -0.0403,-0.012791 -0.0763,-0.042932 -0.0939,-0.078738 -0.0108,-0.021826 -0.0115,-0.025699 -0.0113,-0.058587 3.5e-4,-0.027706 0.002,-0.039417 0.008,-0.05491 0.0168,-0.042651 0.0489,-0.075882 0.0885,-0.091785 0.0276,-0.011098 0.0813,-0.011062 0.10927,7.74e-5 0.0298,0.011874 0.0599,0.04101 0.076,0.07366 0.0127,0.025656 0.0133,0.028379 0.0133,0.062159 0,0.042525 -0.006,0.063207 -0.0279,0.092645 -0.0181,0.024564 -0.0441,0.0444 -0.0703,0.053617 -0.0226,0.00794 -0.0694,0.0089 -0.0916,0.00187 z m 1.26613,-0.4125455 c -0.0163,-0.013851 -0.0526,-0.041571 -0.0836,-0.063711 -0.0145,-0.010374 -0.0269,-0.019352 -0.0277,-0.019949 -0.002,-0.00168 0.0513,-0.096285 0.0829,-0.1472471 0.0493,-0.079275 0.11383,-0.1689514 0.1746,-0.2424832 0.0342,-0.041407 0.1134,-0.1247561 0.11852,-0.1247561 0.003,0 -0.0314,0.062988 -0.07,0.1300282 -0.0317,0.055083 -0.0696,0.12923 -0.0883,0.1727558 -0.0334,0.077901 -0.0698,0.1984118 -0.0851,0.2814608 -0.002,0.013047 -0.006,0.023722 -0.007,0.023722 -0.002,0 -0.008,-0.00442 -0.0143,-0.00982 z"
       id="path1" /></g></svg>
